<svg width="36" height="36" viewBox="0 0 36 36" fill="none" xmlns="http://www.w3.org/2000/svg">
<g filter="url(#filter0_d_4010_1931)">
<path d="M27.5813 8.41841C28.1392 8.9763 28.1392 9.88083 27.5813 10.4387L11.3909 26.6291C10.833 27.187 9.92845 27.187 9.37056 26.6291C8.81268 26.0712 8.81268 25.1669 9.37056 24.6089L25.5611 8.41841C26.119 7.86053 27.0234 7.86053 27.5813 8.41841Z" fill="white"/>
<path d="M8 9.42857C8 8.6396 8.6396 8 9.42857 8L26.5714 8C27.3604 8 28 8.6396 28 9.42857L28 26.5714C28 27.3604 27.3604 28 26.5714 28C25.7825 28 25.1429 27.3604 25.1429 26.5714L25.1429 10.8571L9.42857 10.8571C8.6396 10.8571 8 10.2175 8 9.42857Z" fill="white"/>
</g>
<defs>
<filter id="filter0_d_4010_1931" x="-6" y="-4" width="48" height="48" filterUnits="userSpaceOnUse" color-interpolation-filters="sRGB">
<feFlood flood-opacity="0" result="BackgroundImageFix"/>
<feColorMatrix in="SourceAlpha" type="matrix" values="0 0 0 0 0 0 0 0 0 0 0 0 0 0 0 0 0 0 127 0" result="hardAlpha"/>
<feOffset dy="2"/>
<feGaussianBlur stdDeviation="3"/>
<feComposite in2="hardAlpha" operator="out"/>
<feColorMatrix type="matrix" values="0 0 0 0 0 0 0 0 0 0 0 0 0 0 0 0 0 0 0.01 0"/>
<feBlend mode="normal" in2="BackgroundImageFix" result="effect1_dropShadow_4010_1931"/>
<feBlend mode="normal" in="SourceGraphic" in2="effect1_dropShadow_4010_1931" result="shape"/>
</filter>
</defs>
</svg>
