<svg width="48" height="48" viewBox="0 0 48 48" fill="none" xmlns="http://www.w3.org/2000/svg">
<g filter="url(#filter0_d_4010_1730)">
<rect x="6.75" y="4.75" width="34.5" height="34.5" rx="7.25" stroke="#1E293B" stroke-width="1.5" shape-rendering="crispEdges"/>
<path d="M33.5813 12.4184C34.1392 12.9763 34.1392 13.8808 33.5813 14.4387L17.3909 30.6291C16.833 31.187 15.9284 31.187 15.3706 30.6291C14.8127 30.0712 14.8127 29.1669 15.3706 28.6089L31.5611 12.4184C32.119 11.8605 33.0234 11.8605 33.5813 12.4184Z" fill="#687389"/>
<path d="M14 13.4286C14 12.6396 14.6396 12 15.4286 12H32.5714C33.3604 12 34 12.6396 34 13.4286V30.5714C34 31.3604 33.3604 32 32.5714 32C31.7825 32 31.1429 31.3604 31.1429 30.5714V14.8571H15.4286C14.6396 14.8571 14 14.2175 14 13.4286Z" fill="#687389"/>
</g>
<defs>
<filter id="filter0_d_4010_1730" x="0" y="0" width="48" height="48" filterUnits="userSpaceOnUse" color-interpolation-filters="sRGB">
<feFlood flood-opacity="0" result="BackgroundImageFix"/>
<feColorMatrix in="SourceAlpha" type="matrix" values="0 0 0 0 0 0 0 0 0 0 0 0 0 0 0 0 0 0 127 0" result="hardAlpha"/>
<feOffset dy="2"/>
<feGaussianBlur stdDeviation="3"/>
<feComposite in2="hardAlpha" operator="out"/>
<feColorMatrix type="matrix" values="0 0 0 0 0 0 0 0 0 0 0 0 0 0 0 0 0 0 0.01 0"/>
<feBlend mode="normal" in2="BackgroundImageFix" result="effect1_dropShadow_4010_1730"/>
<feBlend mode="normal" in="SourceGraphic" in2="effect1_dropShadow_4010_1730" result="shape"/>
</filter>
</defs>
</svg>
